<svg width="16" height="12" fill="none" xmlns="http://www.w3.org/2000/svg"><path d="M14.5 0H1.50001C.67285 0 0 .6281 0 1.40026v8.40147C0 10.5739.67285 11.202 1.50001 11.202H14.5c.8271 0 1.5-.6281 1.5-1.40027V1.40026C16 .62811 15.3271 0 14.5 0zm0 .9335a.5278.5278 0 01.1916.03613L8 6.3836 1.30833.96963c.05909-.02295.12371-.03614.19165-.03614H14.5zm0 9.335H1.50001C1.22414 10.2685 1 10.0593 1 9.80169V1.95587l6.67236 5.39815c.09425.07611.21094.11396.32764.11396s.23339-.03782.32764-.11396L15 1.95587v7.84586c0 .25757-.2241.46677-.5.46677z" fill="#757575"/></svg>