<svg width="89" height="46" fill="none" xmlns="http://www.w3.org/2000/svg"><path d="M44.7404 21.3533c-.418-.6101-.6179-1.3313-.5705-2.0571v-2.9827c0-.9143.1891-1.6091.5673-2.0844.3782-.4754 1.0277-.7121 1.9486-.71.8654 0 1.4796.2022 1.8429.6068.3962.5162.5889 1.1474.5448 1.7841v.7009h-1.548v-.71a3.9613 3.9613 0 00-.0448-.6948c-.0223-.1573-.1003-.3028-.2212-.4127-.1589-.1184-.3592-.1759-.5608-.1608-.2121-.015-.4225.0456-.5898.1699-.1348.1218-.2247.2813-.2564.4551a3.78474 3.78474 0 00-.0609.7374v3.6197c-.0244.3493.0439.6987.1988 1.0165.0769.1075.1839.1928.3089.2463.125.0536.2632.0733.3994.0571.1983.0155.395-.0434.548-.1638.1261-.1185.2073-.2732.2308-.44.0361-.2401.0522-.4826.048-.7252v-.7342h1.548v.6705c.0435.6637-.1446 1.3225-.5352 1.8752-.3558.4429-.9615.6644-1.8525.6644-.8909 0-1.564-.2366-1.9454-.7282zM51.1856 21.3837c-.391-.4643-.5865-1.1409-.5865-2.036v-3.1373c0-.886.1955-1.5566.5865-2.0117.391-.4551 1.0448-.6817 1.9614-.6796.9102 0 1.5608.2265 1.9518.6796.391.4551.5897 1.1257.5897 2.0117v3.1373c0 .886-.1987 1.5657-.5961 2.0329-.3974.4673-1.0448.7009-1.9454.7009-.9006 0-1.5672-.2366-1.9614-.6978zm2.6825-.7525c.14-.2908.2038-.6093.1859-.9285v-3.8412c.018-.313-.0447-.6254-.1827-.9103-.0785-.1098-.1881-.1965-.3162-.2501-.128-.0537-.2695-.0721-.4081-.0533-.1391-.0184-.2808.0003-.4093.0539-.1284.0536-.2386.14-.3182.2495-.1409.2841-.2048.5969-.1859.9103v3.8594c-.0195.3193.0444.6382.1859.9285.0902.0979.2016.1763.3265.2301.1249.0537.2606.0815.3978.0815s.2729-.0278.3978-.0815c.1249-.0538.2363-.1322.3265-.2301v-.0182zM57.5505 13.6106h1.6666l1.2531 5.7886 1.282-5.7886h1.6217l.1635 8.3552h-1.1987l-.1282-5.8068-1.2371 5.8068h-.9615l-1.282-5.828-.1185 5.828h-1.2115l.1506-8.3552zM65.4061 13.6106h2.596c1.4956 0 2.2434.7908 2.2434 2.3725 0 1.5149-.7874 2.2713-2.362 2.2693h-.8846v3.7134h-1.6024l.0096-8.3552zm2.2178 3.5708c.1583.0191.3191.0053.4713-.0403.1522-.0455.2921-.1218.41-.2236.1838-.2822.2648-.6136.2308-.9435a2.85863 2.85863 0 00-.0769-.7585c-.0229-.0831-.063-.161-.118-.2292-.0551-.0683-.1239-.1255-.2025-.1682-.2225-.101-.4684-.147-.7147-.1335h-.6218v2.4968h.6218zM72.5559 13.6106h1.7211l1.7658 8.3552h-1.4934L74.2 20.0393h-1.5351l-.359 1.9265H70.79l1.7659-8.3552zm1.4711 5.4609l-.5993-3.5071-.5994 3.5071h1.1987zM77.469 13.6106h1.1218l2.1473 4.7662v-4.7662h1.33v8.3552h-1.0672l-2.1602-4.9755v4.9755h-1.3749l.0032-8.3552zM85.1836 18.7801l-1.7852-5.1578h1.5031l1.0897 3.3131 1.0224-3.3131h1.471l-1.7627 5.1578v3.1857h-1.5383v-3.1857zM47.2146 25.6189v.4369H45.907v3.3951h-.5481v-3.3951h-1.314v-.4369h3.1697zM51.3141 29.4512h-.4231c-.0429.0025-.0853-.0105-.1186-.0364-.032-.0223-.0565-.0528-.0705-.088l-.3781-.9102h-1.8141l-.3781.9102c-.0108.0381-.0305.0733-.0577.1032-.0336.0254-.0757.0383-.1186.0364h-.4231l1.6025-3.8319h.5577l1.6217 3.8167zm-2.6537-1.4229h1.5127l-.641-1.5595a2.96366 2.96366 0 01-.1186-.361c-.0224.0728-.0416.1426-.0609.2033l-.0576.1608-.6346 1.5564zM54.0766 29.0748c.1004.005.2009.005.3013 0 .0866-.0084.1724-.0236.2564-.0455.0785-.0182.1556-.0415.2307-.0698.0706-.0273.1411-.0607.2148-.094v-.8618h-.641a.12064.12064 0 01-.0466-.0066.11588.11588 0 01-.0399-.0237.08685.08685 0 01-.0244-.0315.08325.08325 0 01-.0077-.0383v-.2943h1.2435v1.4686a2.35464 2.35464 0 01-.3205.182 2.2193 2.2193 0 01-.3557.1305 2.65461 2.65461 0 01-.4006.0789 4.4587 4.4587 0 01-.468.0243c-.2764.0022-.5506-.0463-.8076-.1426-.2399-.0914-.4579-.2276-.641-.4006-.1784-.1747-.3189-.3809-.4134-.6068-.101-.254-.151-.5237-.1474-.795-.0034-.2731.0455-.5445.1442-.8011.0922-.2271.2329-.4337.4134-.6069.1829-.1724.401-.3076.641-.3975.2744-.0977.5657-.1461.8589-.1426.1492-.0002.2982.011.4455.0334.1303.0201.2581.0526.3814.0971.1121.0399.2195.0907.3205.1517.0982.0599.1914.1268.2788.2003l-.1538.2367c-.0121.0216-.03.0397-.052.0525-.022.0129-.0472.0198-.073.0203a.1963.1963 0 01-.0994-.0304c-.048-.0242-.0993-.0546-.157-.091-.0682-.0404-.14-.075-.2147-.1032a1.87319 1.87319 0 00-.2949-.0849 2.25465 2.25465 0 00-.407-.0334c-.2115-.0022-.4214.0338-.6186.1062-.1783.0677-.339.1713-.4711.3034-.1328.1378-.2343.3-.2981.4764-.1431.4151-.1431.8625 0 1.2775.0702.1802.1794.3445.3205.4824.1315.1315.291.2349.468.3035.2037.0662.4198.092.6345.0758zM59.1851 29.014h1.75v.4369h-2.2852v-3.832h.5481l-.0129 3.3951zM62.7556 29.4509h-.5481v-3.832h.5481v3.832zM64.7939 25.6371a.26826.26826 0 01.0833.0698l2.3428 2.8886a.97163.97163 0 010-.1365v-2.8552h.4775v3.8474h-.2756a.23998.23998 0 01-.1186-.0212.31382.31382 0 01-.0865-.0729l-2.3396-2.8855v2.9796h-.4583v-3.8323h.2853a.23302.23302 0 01.0897.0182zM71.7323 25.6189v.4217h-1.9422v1.2653h1.5736v.4065h-1.5736v1.3078h1.9422v.4217h-2.5062v-3.823h2.5062zM14.3035 1.95391l24.335 6.54136V31.4173l-24.335-6.5383V1.95391zM12.7427 0v25.9925l27.4533 7.3818V7.38482L12.7427 0z" fill="#AFB1B8"/><path d="M27.4565 45.4402L0 38.0522V12.0625l27.4565 7.3849v25.9928z" fill="#AFB1B8"/><path d="M13.1978 1.65958l24.0177 6.45933-10.2141 9.67229-24.02083-6.4624L13.1978 1.65958zM12.7427 0L0 12.0631l27.4565 7.3847L40.196 7.38469 12.7427 0zM29.0015 43.978l11.1947-10.6006-11.1947-3.0127V43.978z" fill="#AFB1B8"/></svg>