<svg width="59" height="47" fill="none" xmlns="http://www.w3.org/2000/svg"><path d="M4.48764 39.2777c.22988.2857.35234.6435.34592 1.0107a1.60469 1.60469 0 01-.12314.6996 1.59864 1.59864 0 01-.41288.577c-.44659.3386-.99985.5042-1.55821.4662H0v-6.405h2.68323c.52966-.0353 1.0551.1151 1.48654.4256.17328.1456.31049.3296.40081.5376.09032.208.13127.4342.11963.6608.01574.3533-.09478.7006-.31164.9793-.2082.2545-.49592.4309-.81651.5006.36342.0666.69146.2607.92558.5476zm-3.21303-.9668h1.14685a1.0848 1.0848 0 00.72924-.2128.7602.7602 0 00.19579-.2841.76292.76292 0 00.0504-.3417.78807.78807 0 00-.05154-.3403.78585.78585 0 00-.19154-.2855 1.10652 1.10652 0 00-.75105-.2159H1.27461v1.6803zm1.98828 2.4562a.79475.79475 0 00.21143-.2936.79724.79724 0 00.0597-.3572.81003.81003 0 00-.06244-.361.807.807 0 00-.21492-.2961 1.18086 1.18086 0 00-.77911-.2315H1.27461v1.7615h1.21852a1.2056 1.2056 0 00.76976-.2221zM9.97245 42.0312l-1.49277-2.5031h-.56095v2.5031H6.63477v-6.4049h2.4308c.61272-.043 1.21843.1519 1.69223.5444.3398.3476.5447.8057.5779 1.2916.0331.4859-.1077.9678-.3972 1.3586-.2999.345-.7095.575-1.15927.6508l1.58937 2.5595H9.97245zm-2.05372-3.3761h1.05023c.72924 0 1.09384-.3233 1.09384-.97a.95583.95583 0 00-.0587-.3881.95325.95325 0 00-.20929-.3315c-.23045-.1925-.52724-.2858-.82585-.2597h-1.0627l.01247 1.9493zM16.9905 40.7421H14.432l-.4519 1.2891h-1.3463l2.3498-6.333h1.4553l2.3405 6.333h-1.3463l-.4426-1.2891zm-.3428-.97l-.9349-2.7034-.9349 2.7034h1.8698zM25.7759 42.0312h-1.2746l-2.8577-4.3555v4.3555h-1.2715v-6.405h1.2715l2.8577 4.3806v-4.3806h1.2746v6.405zM33.0497 40.4981c-.2635.4836-.6651.8769-1.1531 1.1295a3.74263 3.74263 0 01-1.7919.4037h-2.2688v-6.405h2.2688a3.81575 3.81575 0 011.7919.3943c.4879.2468.8899.6363 1.1531 1.117a3.7351 3.7351 0 01.3991 1.6802 3.7352 3.7352 0 01-.3991 1.6803zm-1.4585-.1533c.3638-.4255.5638-.9678.5638-1.5285 0-.5608-.2-1.103-.5638-1.5285-.4397-.3854-1.0131-.5811-1.5956-.5445h-.885v4.1459h.885c.5825.0366 1.1559-.159 1.5956-.5444zM17.7886 0s16.4515 6.236 16.1025 15.2599v15.263s-16.4391-6.2391-16.0963-15.263L17.7886 0zM48.5474 26.9497c3.107-2.1468 6.7009-3.4766 10.4524-3.8674v-4.7779c-4.3226 1.6727-7.9897 4.7057-10.4524 8.6453z" fill="#AFB1B8"/><path d="M46.6809 28.389c2.543-5.1413 6.9517-9.1086 12.3192-11.0859V3.53571S35.5708 12.4188 36.0663 25.2694V47s1.044-.3974 2.6864-1.1421c0-.6946 0-1.3955.0748-2.0995.4849-5.9659 3.3097-11.4942 7.8534-15.3694z" fill="#AFB1B8"/><path d="M44.4528 36.4616c.123-1.507.3976-2.9978.8196-4.4493-2.8292 3.3466-4.5425 7.4993-4.899 11.8743-.0343.4131-.053.8261-.0624 1.2516 1.3307-.6414 2.8796-1.4424 4.5064-2.3842a22.57416 22.57416 0 01-.3646-6.2924zM45.3846 36.5399a21.58062 21.58062 0 00.2898 5.6978c6.4011-3.8455 13.5938-9.7873 13.3164-16.9683v-.6258c-4.5733.5138-8.8521 2.5211-12.1789 5.7135a21.49084 21.49084 0 00-1.4273 6.1828z" fill="#AFB1B8"/></svg>