<svg width="40" height="52" fill="none" xmlns="http://www.w3.org/2000/svg"><path d="M16.9769 2.93452h.1366c.253 0 .5262.02543.7969.04832a22.6245 22.6245 0 013.5416.53401V.65353A21.09049 21.09049 0 0017.7965.0712C17.3285.0356 16.8302.01271 16.3192 0h-.4275a29.7934 29.7934 0 00-7.33625.94596C5.82521 1.62687 3.20457 2.69275.77148 4.1119V32.5086c2.34273-1.2729 4.83556-2.2443 7.41969-2.8913a32.3603 32.3603 0 016.22813-.9561h.0835c.3517-.0178.7033-.028 1.065-.0306v-2.909a34.3284 34.3284 0 00-8.09507 1.0756c-.97901.2543-1.92512.5289-2.81306.8341l-1.01189.3433V5.83344l.43258-.20852C7.38159 4.05951 10.9521 3.14863 14.5964 2.94215a.62671.62671 0 01.0911 0c.4022-.02034.807-.03052 1.2042-.03052h.4553c.21.00509.4199.01018.6299.02289z" fill="#AFB1B8"/><path d="M24.111 5.93259c-.6653 0-1.323-.02289-1.958-.07121-.7589-.05594-1.5381-.14748-2.2767-.27209-.4503-.07628-.893-.16783-1.3231-.267V33.3935a22.4048 22.4048 0 005.5654.6561 29.9427 29.9427 0 007.3362-.9435c2.7308-.6818 5.3521-1.7476 7.7865-3.1659V2.04956c-2.3424 1.27222-4.8342 2.2444-7.4171 2.89383a31.46742 31.46742 0 01-7.7132.9892zm11.2244.48569l1.0119-.34075V28.2263l-.4326.2085a27.76119 27.76119 0 01-5.1733 1.8589c-2.163.5596-4.3867.8475-6.6203.8569-.6678 0-1.3306-.0279-1.9731-.0839l-.6932-.061V8.22883l.807.05341c.5869.03814 1.194.05594 1.8543.05594a34.2634 34.2634 0 008.4063-1.0782c.9435-.2492 1.8821-.52892 2.813-.8417zM2.73726 42.2124a1.49178 1.49178 0 00-.51478-.3478 1.48573 1.48573 0 00-.61095-.1074 1.6726 1.6726 0 00-.65014.1221 1.50101 1.50101 0 00-.50595.3331 1.46269 1.46269 0 00-.32633.5086 1.65031 1.65031 0 00-.11637.6281v3.794a1.7881 1.7881 0 00.14926.7781c.08955.1944.21885.3677.37945.5086a1.3291 1.3291 0 00.52113.2696c.18448.0518.3751.0783.56666.0788a1.41944 1.41944 0 00.61219-.1322 1.59872 1.59872 0 00.50594-.351 1.64787 1.64787 0 00.3314-.5086 1.5325 1.5325 0 00.12143-.6052v-.4246h-.99166v.3382a.88126.88126 0 01-.05818.3382.60844.60844 0 01-.14419.2136.60545.60545 0 01-.20744.1093.69726.69726 0 01-.20744.0356.50288.50288 0 01-.25995-.0388.50635.50635 0 01-.20552-.1646.89868.89868 0 01-.13154-.5086v-3.5372a1.20784 1.20784 0 01.12142-.567.50693.50693 0 01.2102-.1845.50288.50288 0 01.27551-.0444.527.527 0 01.24752.052.52974.52974 0 01.19518.1616.80647.80647 0 01.16443.5086v.328h.98154v-.3865a1.78833 1.78833 0 00-.12143-.6637 1.56188 1.56188 0 00-.33139-.534zM8.62867 42.1692c-.3162-.267-.7153-.4145-1.12825-.4171a1.73627 1.73627 0 00-.59196.1068 1.60884 1.60884 0 00-.52365.3103 1.55843 1.55843 0 00-.38452.5314 1.77031 1.77031 0 00-.14419.7349v3.6389a1.7548 1.7548 0 00.14419.7451c.08974.1957.22098.3693.38452.5086.1516.1408.32963.2497.52365.3204.18967.0698.38997.106.59196.1068a1.71187 1.71187 0 00.59195-.1068 1.65459 1.65459 0 00.5363-.3204 1.55238 1.55238 0 00.3744-.5086 1.7548 1.7548 0 00.1442-.7451v-3.6389a1.77048 1.77048 0 00-.1442-.7349 1.64145 1.64145 0 00-.3744-.5314zm-.46294 4.9052a.65438.65438 0 01-.03918.2858.6507.6507 0 01-.15813.2406.72601.72601 0 01-.46674.17.72596.72596 0 01-.46673-.17.65084.65084 0 01-.15814-.2406.65438.65438 0 01-.03918-.2858v-3.6389a.65414.65414 0 01.03918-.2857.65084.65084 0 01.15814-.2406.72606.72606 0 01.46673-.1701.7261.7261 0 01.46674.1701.6507.6507 0 01.15813.2406.65414.65414 0 01.03918.2857v3.6389zM16.3675 48.6994v-6.8888h-.9537l-1.2522 3.6465h-.0177l-1.2623-3.6465h-.9436v6.8888h.9841v-4.1908h.0177l.9638 2.9625h.4908l.9714-2.9625h.0177v4.1908h.984zM21.9582 42.2937a1.36543 1.36543 0 00-.5566-.3764 2.18358 2.18358 0 00-.7133-.1068h-1.4622v6.8888h.9815v-2.6904h.506c.3062.0139.6109-.0509.8854-.1882.2231-.1239.4092-.3057.5388-.5264.1135-.1832.19-.3872.2251-.6001.0387-.2592.0564-.5212.0532-.7832a3.9278 3.9278 0 00-.0962-.9841 1.4654 1.4654 0 00-.3617-.6332zm-.506 2.1004a.86815.86815 0 01-.091.3586.55243.55243 0 01-.253.2415c-.1454.0651-.304.0947-.4629.0865h-.4478v-2.342h.5059a.942.942 0 01.4427.0864.55623.55623 0 01.2302.2543c.0537.121.0829.2516.0861.384v.4577c0 .1602.0101.3255 0 .473h-.0102zM26.6074 41.8106h-.8044l-1.5178 6.8888h.9815l.2884-1.48h1.3382l.2884 1.48h.9815l-1.5558-6.8888zm-.9056 4.4704l.4832-2.4971h.0177l.4806 2.4971h-.9815zM32.9496 45.9606h-.0177l-1.4825-4.15h-.9435v6.8888h.9815V44.557h.0202l1.5002 4.1424h.9233v-6.8888h-.9815v4.15zM38.9476 41.8106l-.7893 2.7387h-.0202l-.7893-2.7387h-1.0397l1.3483 3.9771v2.9117h.9816v-2.9117l1.3483-3.9771h-1.0397zM0 50.6445h.47306v1.3274h.32127v-1.3274h.47053v-.2721H0v.2721zM3.97672 50.3724l-.61979 1.5995h.34152l.13154-.3636h.63749l.13661.3636h.3491l-.63496-1.5995h-.34151zm-.0506.9663l.21756-.5925.21755.5925h-.43511zM7.90793 51.3821h.36934v.206a.61275.61275 0 01-.37946.1348.40368.40368 0 01-.18793-.0349.40549.40549 0 01-.15105-.1177.66879.66879 0 01-.1189-.417c0-.356.15431-.534.46041-.534a.33749.33749 0 01.2277.0598.34062.34062 0 01.13405.1944l.31622-.061c-.0683-.3128-.29345-.4704-.67797-.4704-.20566-.0055-.40564.0682-.55907.206a.78023.78023 0 00-.18269.2821.78431.78431 0 00-.04751.3332c-.00932.2189.06386.4332.20491.6002a.77612.77612 0 00.27803.1839.77318.77318 0 00.3291.05c.25027.007.49341-.0842.67797-.2543v-.6306h-.69315v.2695zM11.9224 50.3724h-.3238v1.5995h1.1207v-.2721h-.7969v-1.3274zM15.3175 50.3724h-.3238v1.5995h.3238v-1.5995zM18.6364 51.4405l-.6552-1.0681h-.3137v1.5995h.301v-1.0451l.6426 1.0451h.3212v-1.5995h-.2959v1.0681zM21.6368 51.2675h.7969v-.2721h-.7969v-.3509h.8576v-.2721H21.313v1.5995h1.2143v-.2721h-.8905v-.4323zM28.9121 51.0031h-.6299v-.6307h-.3213v1.5995h.3213v-.6993h.6299v.6993h.3213v-1.5995h-.3213v.6307zM31.9302 51.2675h.7994v-.2721h-.7994v-.3509h.8601v-.2721h-1.1814v1.5995h1.2117v-.2721h-.8904v-.4323zM36.0235 51.2677c.2783-.0433.4199-.1908.4199-.445a.38314.38314 0 00-.0298-.1997.38133.38133 0 00-.127-.1563.90318.90318 0 00-.468-.0941h-.678v1.5995h.3213v-.6688h.0632a.42912.42912 0 01.1999.0356.3335.3335 0 01.1138.1169l.3491.5086h.3845l-.1947-.3128a1.11322 1.11322 0 00-.3542-.3839zm-.3238-.2213h-.2378v-.4017h.253c.1102-.009.2211.004.3263.0381a.20774.20774 0 01.054.0751.209.209 0 01.0163.0913.2103.2103 0 01-.0247.0894.20894.20894 0 01-.0608.0697.90985.90985 0 01-.3263.0381zM39.1094 51.2675h.7969v-.2721h-.7969v-.3509h.8602v-.2721h-1.184v1.5995h1.2143v-.2721h-.8905v-.4323z" fill="#AFB1B8"/></svg>