<svg width="41" height="43" fill="none" xmlns="http://www.w3.org/2000/svg"><path d="M6.34566 41.7946a.11787.11787 0 01.04349.0095.11286.11286 0 01.03624.0248l.20577.2157c-.15972.1745-.35713.3142-.57873.4093-.2595.1038-.53917.1539-.82051.147-.26437.0052-.52704-.0415-.77164-.1372-.22064-.0879-.41889-.22-.5813-.3873-.16577-.1735-.29345-.3768-.37554-.598-.08989-.2466-.13428-.5061-.13118-.7671-.00365-.2627.04434-.5238.14147-.7696.08986-.2226.22539-.4259.39868-.5981.17564-.1687.38574-.3013.61732-.3897.25333-.0935.5231-.1401.79479-.1372.25237-.0059.5034.0367.7382.125.20372.0842.39077.2011.55301.3456l-.17233.2304a.17302.17302 0 01-.04373.0416.10926.10926 0 01-.06945.0172.1571.1571 0 01-.07459-.0245l-.0926-.0613-.1286-.0784a1.40027 1.40027 0 00-.17234-.076 1.67605 1.67605 0 00-.23406-.0613 1.64278 1.64278 0 00-.30608-.0245c-.19564-.0023-.3898.0327-.57102.1029-.16901.0651-.32156.1637-.44755.2893-.12826.1335-.22709.2902-.29065.4607-.07244.1951-.10815.4009-.10546.6079-.00309.2101.03261.4192.10546.6176.06276.1691.15977.3248.2855.4583.11781.1245.26383.2217.42698.2843.1679.0664.34812.0997.52986.0981a2.0449 2.0449 0 00.3138-.0196c.16961-.0198.33231-.0759.47585-.1642a1.56669 1.56669 0 00.2032-.152c.02644-.024.06122-.038.09774-.0392zM12.2871 40.7108c.0032.2601-.0439.5184-.1389.7622-.0838.2211-.2159.4228-.3874.5918-.1716.169-.3788.3014-.608.3885-.5036.183-1.0603.183-1.56384 0-.22771-.0885-.43357-.2212-.60444-.3897-.17147-.172-.30448-.3754-.39096-.5979-.18529-.4937-.18529-1.0332 0-1.5269.08774-.2226.22058-.4266.39096-.6004.17233-.1632.37808-.2908.60444-.3749.50294-.1863 1.06094-.1863 1.56384 0 .2285.0884.4352.2211.607.3896.1694.1704.3014.3712.3884.5906.0953.2455.1424.5055.1389.7671zm-.5401 0a1.7586 1.7586 0 00-.0978-.6127c-.0576-.1691-.1513-.3252-.2752-.4582-.1206-.126-.2691-.2247-.4347-.2892-.3659-.134-.7709-.134-1.13685 0-.16561.0645-.31409.1632-.43469.2892-.12561.1323-.22029.2885-.27779.4582-.13087.399-.13087.8265 0 1.2254.05806.1696.15268.3257.27779.4583.12075.1252.26924.2231.43469.2867.36655.1306.77035.1306 1.13685 0 .1655-.0636.314-.1615.4347-.2867.1234-.1334.217-.2893.2752-.4583.0691-.1974.1021-.4046.0978-.6127zM16.3408 41.3532l.054.1372c.0206-.049.0386-.0931.0591-.1372a1.3197 1.3197 0 01.0669-.1348l1.3144-2.2764c.0257-.0392.0488-.0637.0746-.0711a.32237.32237 0 01.108-.0122h.3884v3.7026h-.4604v-2.7225-.1151a1.08469 1.08469 0 010-.1275l-1.3221 2.3084c-.0168.0345-.0437.0638-.0774.0842a.21572.21572 0 01-.1129.0309h-.0746a.21226.21226 0 01-.1132-.0305c-.0338-.0205-.0606-.0499-.0772-.0846l-1.3606-2.3231v2.9724h-.445v-3.6952h.3884a.32237.32237 0 01.108.0122c.0319.0151.0573.0402.072.0711l1.3427 2.2789a.80489.80489 0 01.0669.1323zM21.2869 41.1692v1.387h-.5144v-3.6977h1.1471c.2166-.0039.4325.0233.6405.0809.1665.0449.3209.1235.4527.2303.1142.1002.2023.2243.2572.3627.0607.1508.0904.3114.0875.4729.0022.1622-.0301.3231-.0952.4729-.0618.1419-.1569.2684-.2778.37-.132.1113-.2871.1948-.4553.2451a1.99455 1.99455 0 01-.6199.0857l-.6224-.0098zm0-.3969h.6224a1.3224 1.3224 0 00.3987-.0564c.1063-.0341.2043-.0882.2881-.1593.0773-.0678.1371-.1516.1749-.245.0421-.0988.0631-.2046.0617-.3112a.67735.67735 0 00-.0516-.3012c-.0399-.0957-.1013-.1818-.1798-.2526-.1966-.1462-.4434-.217-.692-.1985h-.6224v1.5242zM28.2007 42.5612h-.4064c-.0407.0014-.0808-.0107-.1131-.0344a.22605.22605 0 01-.0669-.0857l-.3498-.8945h-1.7568l-.3627.8945c-.0133.0327-.0355.0614-.0643.0833-.0327.0251-.0737.0381-.1157.0368h-.4064l1.5433-3.703h.535l1.5638 3.703zm-2.5464-1.3749h1.4507l-.6122-1.5072a2.61396 2.61396 0 01-.1157-.348l-.0592.1936c-.018.0589-.0385.1128-.0565.1569l-.6071 1.5047zM30.4233 38.8754c.0308.0161.0572.0387.0772.0662l2.2506 2.7913v-.1299V38.8582h.4604v3.703h-.2572a.23024.23024 0 01-.1054-.0221.2829.2829 0 01-.0823-.0686l-2.2481-2.7888c.0025.0424.0025.0849 0 .1274v2.7521h-.4604v-3.703h.2727a.22477.22477 0 01.0925.0172zM37.0028 41.0884v1.4704h-.5145v-1.4704l-1.4224-2.23h.4604c.0397-.0023.0789.009.1106.0318a.3166.3166 0 01.0695.0833l.89 1.4386c.036.0612.0668.1176.0926.1715.0257.0539.0463.1054.0643.1569l.0668-.1593c.025-.0583.0542-.1148.0875-.1691l.8771-1.4484a.3727.3727 0 01.0669-.0784c.0305-.0254.0701-.0386.1106-.0367h.4655l-1.4249 2.2398zM16.0859 32.6443c.2238.0269.4502.049.6791.0686 3.4706-1.4792 6.4066-3.9002 8.441-6.9603 2.0344-3.0602 3.077-6.6237 2.9973-10.2453l-3.8248-3.644c.7777 3.8558.414 7.8417-1.0506 11.5118-1.4645 3.6701-3.972 6.8795-7.242 9.2692z" fill="#AFB1B8"/><path d="M14.7202 32.4748l.1029.0196c3.4942-2.3812 6.1583-5.7064 7.6477-9.5456 1.4893-3.8391 1.7355-8.0157.7066-11.9896l-5.4478-5.19016c2.2035 4.26626 3.0904 9.04076 2.5577 13.76836-.5327 4.7276-2.4633 9.214-5.5671 12.9374zM33.1959 19.7861c-.9255 3.9793-3.1734 7.568-6.4098 10.2335-.9451.7827-1.9647 1.48-3.0454 2.0829 2.6354-.7379 5.0576-2.0427 7.08-3.8135 2.0225-1.7709 3.591-3.9606 4.5847-6.4003l-2.2095-2.1026z" fill="#AFB1B8"/><path d="M32.3292 19.2002l-3.1457-2.9971c-.0602 3.417-1.0798 6.7563-2.9529 9.6708-1.8731 2.9146-4.5313 5.2979-7.6984 6.9025h.0155a18.76075 18.76075 0 002.1117-.1201c2.9598-1.151 5.5745-2.9821 7.6108-5.3301 2.0362-2.348 3.4307-5.1397 4.059-8.126zM15.1757 3.5803L11.4229 0C8.06808 1.23513 5.18278 3.40643 3.14464 6.22973 1.1065 9.05304.01047 12.3968 0 15.8234c.01257 3.7863 1.3502 7.4604 3.80116 10.4409 2.45097 2.9805 5.87526 5.0971 9.73094 6.0148 3.4419-3.9953 5.4571-8.9321 5.7526-14.0931.2956-5.161-1.1438-10.27738-4.109-14.6057zM41.0002 18.649c-.0135-4.4922-1.8926-8.79677-5.2267-11.97326-3.3341-3.1765-7.8522-4.96676-12.5673-4.97969-2.1788-.00215-4.3391.38091-6.3712 1.12971L39.8119 24.7166c.7868-1.9351 1.1897-3.9925 1.1883-6.0676z" fill="#AFB1B8"/></svg>