<svg width="10" height="15" fill="none" xmlns="http://www.w3.org/2000/svg"><path d="M8.5 0h-7C.67285 0 0 .6281 0 1.40025V13.5357c0 .7722.67285 1.4003 1.5 1.4003h7c.82715 0 1.5-.6281 1.5-1.4003V1.40025C10 .6281 9.32715 0 8.5 0zm-7 .9335h7c.27588 0 .5.20921.5.46675V11.202H1V1.40025c0-.25754.22412-.46675.5-.46675zm7 13.069h-7c-.27588 0-.5-.2092-.5-.4668v-1.4002h8v1.4002c0 .2576-.22412.4668-.5.4668z" fill="#757575"/><path d="M2.35355 12.7391c.19527.1823.19527.4779 0 .6603-.19527.1823-.51183.1823-.7071 0-.19527-.1824-.19527-.478 0-.6603.19527-.1824.51183-.1824.7071 0z" fill="#757575"/></svg>